<?xml version="1.0" encoding="UTF-8"?>
<svg xmlns="http://www.w3.org/2000/svg" xmlns:xlink="http://www.w3.org/1999/xlink" width="24pt" height="24pt" viewBox="0 0 24 24" version="1.1">
<g id="surface1">
<path style=" stroke:none;fill-rule:nonzero;fill:rgb(0%,0%,0%);fill-opacity:1;" d="M 7.125 14.25 C 7.125 16.941406 9.308594 19.125 12 19.125 C 14.691406 19.125 16.875 16.941406 16.875 14.25 C 16.875 11.558594 14.691406 9.375 12 9.375 C 9.308594 9.375 7.125 11.558594 7.125 14.25 Z M 22.5 6 L 17.25 6 C 16.875 4.5 16.5 3 15 3 L 9 3 C 7.5 3 7.125 4.5 6.75 6 L 1.5 6 C 0.675781 6 0 6.675781 0 7.5 L 0 21 C 0 21.824219 0.675781 22.5 1.5 22.5 L 22.5 22.5 C 23.324219 22.5 24 21.824219 24 21 L 24 7.5 C 24 6.675781 23.324219 6 22.5 6 Z M 12 20.90625 C 8.324219 20.90625 5.34375 17.925781 5.34375 14.25 C 5.34375 10.574219 8.324219 7.59375 12 7.59375 C 15.675781 7.59375 18.65625 10.574219 18.65625 14.25 C 18.65625 17.925781 15.675781 20.90625 12 20.90625 Z M 22.5 10.5 L 19.5 10.5 L 19.5 9 L 22.5 9 Z M 22.5 10.5 "/>
</g>
</svg>
