<?xml version="1.0" encoding="UTF-8"?>
<svg xmlns="http://www.w3.org/2000/svg" xmlns:xlink="http://www.w3.org/1999/xlink" width="24pt" height="24pt" viewBox="0 0 24 24" version="1.1">
<g id="surface1">
<path style=" stroke:none;fill-rule:nonzero;fill:rgb(0%,0%,0%);fill-opacity:1;" d="M 12 4.5 C 10.710938 4.5 9.46875 4.703125 8.304688 5.101562 C 7.210938 5.480469 6.234375 6.011719 5.40625 6.683594 C 3.855469 7.945312 3 9.566406 3 11.25 C 3 12.195312 3.261719 13.109375 3.78125 13.972656 C 4.3125 14.859375 5.113281 15.671875 6.097656 16.320312 C 6.8125 16.789062 7.289062 17.539062 7.414062 18.382812 C 7.457031 18.664062 7.484375 18.945312 7.496094 19.230469 C 7.671875 19.082031 7.839844 18.925781 8.007812 18.761719 C 8.574219 18.195312 9.339844 17.882812 10.128906 17.882812 C 10.253906 17.882812 10.382812 17.890625 10.507812 17.90625 C 11 17.96875 11.5 18 12 18 C 13.289062 18 14.53125 17.796875 15.695312 17.398438 C 16.789062 17.019531 17.765625 16.488281 18.59375 15.816406 C 20.144531 14.554688 21 12.933594 21 11.25 C 21 9.566406 20.144531 7.945312 18.59375 6.683594 C 17.765625 6.011719 16.789062 5.480469 15.695312 5.101562 C 14.53125 4.703125 13.289062 4.5 12 4.5 Z M 12 1.5 C 18.628906 1.5 24 5.863281 24 11.25 C 24 16.632812 18.628906 21 12 21 C 11.363281 21 10.738281 20.960938 10.128906 20.882812 C 7.550781 23.460938 4.476562 23.921875 1.5 23.988281 L 1.5 23.359375 C 3.105469 22.570312 4.5 21.136719 4.5 19.5 C 4.5 19.269531 4.480469 19.046875 4.449219 18.828125 C 1.734375 17.039062 0 14.308594 0 11.25 C 0 5.863281 5.371094 1.5 12 1.5 Z M 12 1.5 "/>
</g>
</svg>
