<?xml version="1.0" encoding="UTF-8"?>
<svg xmlns="http://www.w3.org/2000/svg" xmlns:xlink="http://www.w3.org/1999/xlink" width="50pt" height="50pt" viewBox="0 0 50 50" version="1.1">
<g id="surface1">
<path style=" stroke:none;fill-rule:nonzero;fill:rgb(0%,0%,0%);fill-opacity:1;" d="M 25 4.5 C 31.679688 4.5 32.46875 4.53125 35.097656 4.648438 C 37.539062 4.757812 38.859375 5.164062 39.734375 5.507812 C 40.898438 5.957031 41.738281 6.503906 42.609375 7.375 C 43.484375 8.25 44.023438 9.082031 44.484375 10.242188 C 44.824219 11.125 45.234375 12.453125 45.34375 14.882812 C 45.460938 17.519531 45.488281 18.3125 45.488281 24.980469 C 45.488281 31.648438 45.460938 32.453125 45.34375 35.078125 C 45.234375 37.519531 44.824219 38.835938 44.484375 39.71875 C 44.03125 40.878906 43.484375 41.71875 42.617188 42.585938 C 41.738281 43.46875 40.90625 44.003906 39.746094 44.460938 C 38.867188 44.804688 37.539062 45.214844 35.109375 45.320312 C 32.46875 45.4375 31.679688 45.46875 25.007812 45.46875 C 18.339844 45.46875 17.539062 45.4375 14.914062 45.320312 C 12.46875 45.214844 11.152344 44.804688 10.273438 44.460938 C 9.109375 44.015625 8.273438 43.46875 7.402344 42.597656 C 6.523438 41.71875 5.984375 40.890625 5.527344 39.726562 C 5.1875 38.847656 4.773438 37.519531 4.667969 35.085938 C 4.550781 32.453125 4.523438 31.660156 4.523438 24.992188 C 4.523438 18.320312 4.550781 17.519531 4.667969 14.890625 C 4.773438 12.453125 5.1875 11.132812 5.527344 10.253906 C 5.976562 9.09375 6.523438 8.25 7.390625 7.382812 C 8.273438 6.503906 9.101562 5.96875 10.265625 5.507812 C 11.140625 5.164062 12.46875 4.757812 14.902344 4.648438 C 17.53125 4.53125 18.320312 4.5 25 4.5 Z M 25 0 C 18.210938 0 17.363281 0.03125 14.695312 0.148438 C 12.039062 0.265625 10.214844 0.695312 8.632812 1.308594 C 6.984375 1.953125 5.585938 2.804688 4.199219 4.199219 C 2.804688 5.585938 1.953125 6.984375 1.308594 8.625 C 0.695312 10.214844 0.265625 12.03125 0.148438 14.6875 C 0.03125 17.363281 0 18.210938 0 25 C 0 31.789062 0.03125 32.636719 0.148438 35.304688 C 0.265625 37.960938 0.695312 39.785156 1.308594 41.367188 C 1.953125 43.015625 2.804688 44.414062 4.199219 45.800781 C 5.585938 47.1875 6.984375 48.046875 8.625 48.679688 C 10.214844 49.296875 12.03125 49.726562 14.6875 49.84375 C 17.351562 49.960938 18.203125 49.992188 24.992188 49.992188 C 31.777344 49.992188 32.625 49.960938 35.292969 49.84375 C 37.949219 49.726562 39.773438 49.296875 41.359375 48.679688 C 43 48.046875 44.394531 47.1875 45.78125 45.800781 C 47.167969 44.414062 48.027344 43.015625 48.664062 41.375 C 49.277344 39.785156 49.707031 37.96875 49.824219 35.3125 C 49.941406 32.648438 49.96875 31.796875 49.96875 25.007812 C 49.96875 18.222656 49.941406 17.375 49.824219 14.707031 C 49.707031 12.050781 49.277344 10.226562 48.664062 8.640625 C 48.046875 6.984375 47.195312 5.585938 45.800781 4.199219 C 44.414062 2.8125 43.015625 1.953125 41.375 1.320312 C 39.785156 0.703125 37.96875 0.273438 35.3125 0.15625 C 32.636719 0.03125 31.789062 0 25 0 Z M 25 0 "/>
<path style=" stroke:none;fill-rule:nonzero;fill:rgb(0%,0%,0%);fill-opacity:1;" d="M 25 12.15625 C 17.910156 12.15625 12.15625 17.910156 12.15625 25 C 12.15625 32.089844 17.910156 37.84375 25 37.84375 C 32.089844 37.84375 37.84375 32.089844 37.84375 25 C 37.84375 17.910156 32.089844 12.15625 25 12.15625 Z M 25 33.328125 C 20.398438 33.328125 16.671875 29.601562 16.671875 25 C 16.671875 20.398438 20.398438 16.671875 25 16.671875 C 29.601562 16.671875 33.328125 20.398438 33.328125 25 C 33.328125 29.601562 29.601562 33.328125 25 33.328125 Z M 25 33.328125 "/>
<path style=" stroke:none;fill-rule:nonzero;fill:rgb(0%,0%,0%);fill-opacity:1;" d="M 41.347656 11.648438 C 41.347656 13.304688 40.007812 14.648438 38.351562 14.648438 C 36.695312 14.648438 35.351562 13.304688 35.351562 11.648438 C 35.351562 9.992188 36.695312 8.652344 38.351562 8.652344 C 40.007812 8.652344 41.347656 9.992188 41.347656 11.648438 Z M 41.347656 11.648438 "/>
</g>
</svg>
