<?xml version="1.0" encoding="UTF-8"?>
<svg xmlns="http://www.w3.org/2000/svg" xmlns:xlink="http://www.w3.org/1999/xlink" width="100pt" height="100pt" viewBox="0 0 100 100" version="1.1">
<g id="surface1">
<path style=" stroke:none;fill-rule:nonzero;fill:rgb(0%,0%,0%);fill-opacity:1;" d="M 50 9.003906 C 63.359375 9.003906 64.941406 9.0625 70.195312 9.296875 C 75.078125 9.511719 77.714844 10.332031 79.472656 11.015625 C 81.796875 11.914062 83.476562 13.007812 85.214844 14.746094 C 86.972656 16.503906 88.046875 18.164062 88.964844 20.488281 C 89.648438 22.246094 90.46875 24.902344 90.683594 29.765625 C 90.917969 35.039062 90.976562 36.621094 90.976562 49.960938 C 90.976562 63.300781 90.917969 64.902344 90.683594 70.15625 C 90.46875 75.039062 89.648438 77.675781 88.964844 79.433594 C 88.066406 81.757812 86.972656 83.4375 85.234375 85.175781 C 83.476562 86.933594 81.816406 88.007812 79.492188 88.925781 C 77.734375 89.609375 75.078125 90.429688 70.214844 90.644531 C 64.941406 90.878906 63.359375 90.9375 50.019531 90.9375 C 36.679688 90.9375 35.078125 90.878906 29.824219 90.644531 C 24.941406 90.429688 22.304688 89.609375 20.546875 88.925781 C 18.222656 88.027344 16.542969 86.933594 14.804688 85.195312 C 13.046875 83.4375 11.972656 81.777344 11.054688 79.453125 C 10.371094 77.695312 9.550781 75.039062 9.335938 70.175781 C 9.101562 64.902344 9.042969 63.320312 9.042969 49.980469 C 9.042969 36.640625 9.101562 35.039062 9.335938 29.785156 C 9.550781 24.902344 10.371094 22.265625 11.054688 20.507812 C 11.953125 18.183594 13.046875 16.503906 14.785156 14.765625 C 16.542969 13.007812 18.203125 11.933594 20.527344 11.015625 C 22.285156 10.332031 24.941406 9.511719 29.804688 9.296875 C 35.058594 9.0625 36.640625 9.003906 50 9.003906 Z M 50 0 C 36.425781 0 34.726562 0.0585938 29.394531 0.292969 C 24.082031 0.527344 20.429688 1.386719 17.265625 2.617188 C 13.964844 3.90625 11.171875 5.605469 8.398438 8.398438 C 5.605469 11.171875 3.90625 13.964844 2.617188 17.246094 C 1.386719 20.429688 0.527344 24.0625 0.292969 29.375 C 0.0585938 34.726562 0 36.425781 0 50 C 0 63.574219 0.0585938 65.273438 0.292969 70.605469 C 0.527344 75.917969 1.386719 79.570312 2.617188 82.734375 C 3.90625 86.035156 5.605469 88.828125 8.398438 91.601562 C 11.171875 94.375 13.964844 96.09375 17.246094 97.363281 C 20.429688 98.59375 24.0625 99.453125 29.375 99.6875 C 34.707031 99.921875 36.40625 99.980469 49.980469 99.980469 C 63.554688 99.980469 65.253906 99.921875 70.585938 99.6875 C 75.898438 99.453125 79.550781 98.59375 82.714844 97.363281 C 85.996094 96.09375 88.789062 94.375 91.5625 91.601562 C 94.335938 88.828125 96.054688 86.035156 97.324219 82.753906 C 98.554688 79.570312 99.414062 75.9375 99.648438 70.625 C 99.882812 65.292969 99.941406 63.59375 99.941406 50.019531 C 99.941406 36.445312 99.882812 34.746094 99.648438 29.414062 C 99.414062 24.101562 98.554688 20.449219 97.324219 17.285156 C 96.09375 13.964844 94.394531 11.171875 91.601562 8.398438 C 88.828125 5.625 86.035156 3.90625 82.753906 2.636719 C 79.570312 1.40625 75.9375 0.546875 70.625 0.3125 C 65.273438 0.0585938 63.574219 0 50 0 Z M 50 0 "/>
<path style=" stroke:none;fill-rule:nonzero;fill:rgb(0%,0%,0%);fill-opacity:1;" d="M 50 24.316406 C 35.820312 24.316406 24.316406 35.820312 24.316406 50 C 24.316406 64.179688 35.820312 75.683594 50 75.683594 C 64.179688 75.683594 75.683594 64.179688 75.683594 50 C 75.683594 35.820312 64.179688 24.316406 50 24.316406 Z M 50 66.660156 C 40.800781 66.660156 33.339844 59.199219 33.339844 50 C 33.339844 40.800781 40.800781 33.339844 50 33.339844 C 59.199219 33.339844 66.660156 40.800781 66.660156 50 C 66.660156 59.199219 59.199219 66.660156 50 66.660156 Z M 50 66.660156 "/>
<path style=" stroke:none;fill-rule:nonzero;fill:rgb(0%,0%,0%);fill-opacity:1;" d="M 82.695312 23.300781 C 82.695312 26.613281 80.011719 29.296875 76.699219 29.296875 C 73.386719 29.296875 70.703125 26.613281 70.703125 23.300781 C 70.703125 19.988281 73.386719 17.304688 76.699219 17.304688 C 80.011719 17.304688 82.695312 19.988281 82.695312 23.300781 Z M 82.695312 23.300781 "/>
</g>
</svg>
