<?xml version="1.0" encoding="UTF-8"?>
<svg xmlns="http://www.w3.org/2000/svg" xmlns:xlink="http://www.w3.org/1999/xlink" width="24pt" height="24pt" viewBox="0 0 24 24" version="1.1">
<g id="surface1">
<path style=" stroke:none;fill-rule:nonzero;fill:rgb(0%,0%,0%);fill-opacity:1;" d="M 21.871094 7.855469 C 20.933594 7.609375 18.730469 7.609375 15.507812 7.527344 C 15.660156 6.820312 15.695312 6.1875 15.695312 5.0625 C 15.695312 2.371094 13.734375 0 12 0 C 10.773438 0 9.765625 1 9.75 2.234375 C 9.734375 3.742188 9.265625 6.351562 6.75 7.675781 C 6.566406 7.773438 6.039062 8.03125 5.960938 8.066406 L 6 8.101562 C 5.605469 7.761719 5.058594 7.5 4.5 7.5 L 2.25 7.5 C 1.007812 7.5 0 8.507812 0 9.75 L 0 21.75 C 0 22.992188 1.007812 24 2.25 24 L 4.5 24 C 5.390625 24 6.140625 23.460938 6.5 22.703125 C 6.511719 22.707031 6.527344 22.710938 6.535156 22.714844 C 6.585938 22.726562 6.644531 22.742188 6.714844 22.761719 C 6.730469 22.765625 6.734375 22.765625 6.75 22.769531 C 7.183594 22.875 8.015625 23.074219 9.792969 23.484375 C 10.171875 23.570312 12.183594 24 14.269531 24 L 18.371094 24 C 19.621094 24 20.519531 23.519531 21.058594 22.554688 C 21.066406 22.539062 21.238281 22.203125 21.378906 21.746094 C 21.484375 21.402344 21.523438 20.917969 21.394531 20.425781 C 22.199219 19.875 22.460938 19.035156 22.628906 18.492188 C 22.910156 17.597656 22.828125 16.925781 22.628906 16.445312 C 23.082031 16.019531 23.46875 15.367188 23.632812 14.371094 C 23.734375 13.753906 23.625 13.121094 23.339844 12.59375 C 23.765625 12.117188 23.957031 11.515625 23.980469 10.960938 L 23.992188 10.804688 C 23.996094 10.707031 24 10.644531 24 10.429688 C 24 9.480469 23.34375 8.273438 21.871094 7.855469 Z M 5.25 21.75 C 5.25 22.164062 4.914062 22.5 4.5 22.5 L 2.25 22.5 C 1.835938 22.5 1.5 22.164062 1.5 21.75 L 1.5 9.75 C 1.5 9.335938 1.835938 9 2.25 9 L 4.5 9 C 4.914062 9 5.25 9.335938 5.25 9.75 Z M 22.484375 10.902344 C 22.46875 11.273438 22.3125 12 21 12 C 19.875 12 19.5 12 19.5 12 C 19.292969 12 19.125 12.167969 19.125 12.375 C 19.125 12.582031 19.292969 12.75 19.5 12.75 C 19.5 12.75 19.828125 12.75 20.953125 12.75 C 22.078125 12.75 22.226562 13.683594 22.152344 14.132812 C 22.058594 14.691406 21.796875 15.75 20.53125 15.75 C 19.265625 15.75 18.75 15.75 18.75 15.75 C 18.542969 15.75 18.375 15.917969 18.375 16.125 C 18.375 16.332031 18.542969 16.5 18.75 16.5 C 18.75 16.5 19.640625 16.5 20.226562 16.5 C 21.492188 16.5 21.382812 17.464844 21.199219 18.042969 C 20.960938 18.796875 20.8125 19.5 19.21875 19.5 C 18.679688 19.5 17.996094 19.5 17.996094 19.5 C 17.789062 19.5 17.621094 19.667969 17.621094 19.875 C 17.621094 20.082031 17.789062 20.25 17.996094 20.25 C 17.996094 20.25 18.515625 20.25 19.171875 20.25 C 19.992188 20.25 20.03125 21.027344 19.945312 21.304688 C 19.851562 21.609375 19.738281 21.835938 19.734375 21.84375 C 19.507812 22.253906 19.144531 22.5 18.371094 22.5 L 14.269531 22.5 C 12.210938 22.5 10.167969 22.03125 10.117188 22.019531 C 7 21.304688 6.835938 21.246094 6.640625 21.191406 C 6.640625 21.191406 6.003906 21.085938 6.003906 20.53125 L 6 10.171875 C 6 9.820312 6.222656 9.503906 6.59375 9.390625 C 6.640625 9.371094 6.703125 9.351562 6.75 9.335938 C 10.175781 7.914062 11.21875 4.804688 11.25 2.25 C 11.253906 1.890625 11.53125 1.5 12 1.5 C 12.792969 1.5 14.195312 3.089844 14.195312 5.0625 C 14.195312 6.839844 14.121094 7.148438 13.5 9 C 21 9 20.949219 9.109375 21.609375 9.28125 C 22.429688 9.515625 22.5 10.195312 22.5 10.429688 C 22.5 10.6875 22.492188 10.648438 22.484375 10.902344 Z M 3.375 19.5 C 2.753906 19.5 2.25 20.003906 2.25 20.625 C 2.25 21.246094 2.753906 21.75 3.375 21.75 C 3.996094 21.75 4.5 21.246094 4.5 20.625 C 4.5 20.003906 3.996094 19.5 3.375 19.5 Z M 3.375 21 C 3.167969 21 3 20.832031 3 20.625 C 3 20.417969 3.167969 20.25 3.375 20.25 C 3.582031 20.25 3.75 20.417969 3.75 20.625 C 3.75 20.832031 3.582031 21 3.375 21 Z M 3.375 21 "/>
</g>
</svg>
