<?xml version="1.0" encoding="UTF-8"?>
<svg xmlns="http://www.w3.org/2000/svg" xmlns:xlink="http://www.w3.org/1999/xlink" width="103pt" height="103pt" viewBox="0 0 103 103" version="1.1">
<g id="surface1">
<path style=" stroke:none;fill-rule:nonzero;fill:rgb(14.509804%,14.509804%,14.509804%);fill-opacity:1;" d="M 38.699219 44.554688 C 37.585938 45.058594 35.382812 47.113281 35.507812 49.1875 C 35.636719 51.265625 37.054688 51.667969 37.054688 51.667969 C 37.460938 51.695312 37.460938 51.441406 37.460938 51.441406 C 37.460938 51.441406 36.726562 50.605469 36.925781 48.605469 C 37.128906 46.605469 38.675781 45.515625 38.675781 45.515625 C 38.675781 45.515625 38.675781 52.859375 38.675781 54.808594 C 38.675781 56.757812 38.347656 57.59375 38.117188 58.175781 C 40.144531 58.152344 40.269531 54.457031 40.269531 54.457031 C 40.269531 54.457031 40.269531 47.085938 40.269531 45.769531 C 40.269531 44.453125 39.613281 44.554688 38.699219 44.554688 Z M 38.699219 44.554688 "/>
<path style=" stroke:none;fill-rule:nonzero;fill:rgb(14.509804%,14.509804%,14.509804%);fill-opacity:1;" d="M 98.101562 53.867188 C 98.101562 53.867188 98.101562 53.867188 97.800781 53.839844 C 97.761719 54.492188 97.234375 55.65625 96.824219 55.644531 C 96.417969 55.628906 96.203125 55.453125 96.023438 54.476562 C 95.847656 53.5 95.890625 51.84375 95.917969 50.460938 C 95.941406 49.078125 95.496094 48.792969 94.828125 48.710938 C 94.167969 48.628906 93.949219 49.117188 93.746094 49.660156 C 93.542969 50.203125 92.578125 53 92.578125 53 C 92.578125 53 92.511719 51.574219 92.496094 50.433594 C 92.484375 49.292969 92.089844 48.644531 91.289062 48.644531 C 90.488281 48.644531 90.300781 49.632812 90.273438 49.703125 C 90.246094 49.769531 89.421875 51.769531 89.421875 51.769531 C 89.421875 51.769531 89.421875 50.582031 89.421875 49.542969 C 89.421875 48.503906 87.851562 48.65625 87.851562 48.65625 L 87.851562 53.769531 C 87.851562 53.769531 87.546875 55.773438 86.6875 55.773438 C 85.824219 55.773438 85.800781 53.847656 85.800781 53.847656 C 85.800781 53.847656 85.800781 50.910156 85.800781 49.71875 C 85.800781 48.53125 84.613281 48.859375 84.511719 48.808594 C 84.410156 48.757812 84.332031 49.113281 84.257812 49.3125 C 82.941406 48.097656 81.519531 48.632812 80.8125 49.871094 C 80.101562 51.113281 79.925781 53.1875 80.253906 54.707031 C 80.128906 55.621094 79.320312 55.671875 79.320312 55.671875 C 78.507812 55.671875 78.457031 54.480469 78.457031 54.480469 C 78.203125 52.582031 78.710938 50.632812 78.761719 49.820312 C 78.8125 49.011719 77.496094 49.0625 76.988281 49.414062 C 76.480469 49.769531 76.28125 49.363281 76.28125 49.363281 C 76.28125 49.363281 76.027344 48.199219 75.039062 48.277344 C 74.050781 48.351562 74.175781 49.71875 74.40625 49.949219 C 74.632812 50.175781 74.660156 50.632812 74.480469 51.59375 C 74.304688 52.554688 72.859375 54.53125 72.859375 54.53125 C 72.859375 54.53125 72.886719 51.164062 72.886719 49.71875 C 72.886719 48.277344 71.292969 48.882812 71.292969 48.882812 C 71.292969 48.882812 71.292969 48.882812 71.238281 49.414062 C 69.519531 47.492188 68.199219 49.289062 68.199219 49.289062 C 66.40625 51.441406 67.113281 54.304688 67.164062 54.632812 C 67.214844 54.960938 66.886719 55.773438 66.097656 55.773438 C 65.316406 55.773438 65.339844 54.328125 65.339844 54.328125 C 65.339844 54.328125 65.339844 50.605469 65.339844 49.566406 C 65.339844 48.53125 63.847656 48.757812 63.847656 48.757812 L 63.847656 49.390625 C 63.847656 49.390625 62.757812 47.464844 61.011719 48.730469 C 59.261719 49.996094 59.464844 53.644531 59.4375 53.722656 C 59.414062 53.796875 58.78125 55.339844 58.074219 55.339844 C 57.363281 55.339844 57.390625 53.621094 57.390625 53.621094 L 57.390625 48.351562 C 57.390625 48.351562 57.820312 48.351562 58.957031 48.351562 C 60.097656 48.351562 59.894531 47.238281 59.894531 47.238281 L 57.539062 47.238281 L 57.539062 44.933594 C 57.25 44.640625 56.628906 44.300781 56.25 44.300781 C 55.871094 44.300781 55.617188 44.65625 55.617188 44.65625 L 55.617188 47.136719 C 55.617188 47.136719 54.679688 47.136719 54.070312 47.136719 C 53.464844 47.136719 53.566406 48.300781 53.566406 48.300781 L 55.617188 48.300781 C 55.617188 48.300781 55.617188 50.277344 55.617188 51.667969 C 55.617188 53.0625 54.855469 53.972656 54.300781 54.605469 C 54.628906 52.988281 53.085938 51.796875 52.195312 51.289062 C 51.3125 50.785156 52.097656 50.203125 52.402344 49.695312 C 52.703125 49.1875 52.78125 48.554688 51.765625 48.554688 C 50.753906 48.554688 50.148438 49.265625 49.992188 50.050781 C 49.84375 50.835938 50.425781 51.339844 50.347656 51.644531 C 50.273438 51.949219 48.5 54.554688 48.144531 55.039062 C 47.792969 55.519531 47.664062 54.554688 47.664062 54.554688 L 47.664062 49.515625 C 47.664062 49.515625 47.285156 48.933594 46.828125 48.757812 C 46.371094 48.582031 45.410156 48.53125 44.804688 49.644531 C 44.195312 50.757812 43.257812 52.707031 43.257812 52.707031 C 43.257812 52.707031 43.257812 50.503906 43.257812 49.515625 C 43.257812 48.53125 41.890625 48.683594 41.890625 48.683594 L 41.890625 55.59375 C 41.890625 55.59375 41.839844 56.632812 42.726562 56.632812 L 43.4375 56.609375 C 43.714844 52.734375 45.363281 50.808594 45.742188 50.300781 C 46.121094 49.796875 46.042969 50.378906 46.042969 50.378906 C 46.042969 50.378906 46.042969 53.1875 46.042969 54.683594 C 46.042969 56.175781 46.957031 57.316406 48.296875 56.050781 C 49.640625 54.785156 50.984375 52 50.984375 52 C 51.210938 52.554688 51.996094 52.683594 52.527344 53.644531 C 53.058594 54.605469 52.425781 55.417969 51.691406 55.441406 C 50.957031 55.46875 51.058594 54.757812 50.601562 54.785156 C 50.148438 54.808594 49.488281 55.46875 50.148438 56.101562 C 50.804688 56.734375 52.25 56.558594 52.25 56.558594 C 54.730469 56.558594 55.566406 53.621094 55.566406 53.621094 C 55.691406 54.734375 55.84375 56.558594 57.464844 56.558594 C 59.085938 56.558594 59.59375 54.582031 59.59375 54.582031 C 59.59375 54.582031 60.148438 56.558594 61.871094 56.558594 C 63.59375 56.558594 64.097656 55.089844 64.097656 55.089844 C 64.25 55.875 64.859375 56.632812 65.796875 56.632812 C 66.734375 56.632812 67.445312 55.417969 67.445312 55.417969 C 67.445312 55.417969 67.847656 56.582031 69.214844 56.582031 C 70.582031 56.582031 71.316406 55.367188 71.316406 55.367188 L 71.316406 56.03125 C 71.316406 56.03125 70.402344 57.113281 69.238281 58.28125 C 67.753906 59.773438 67.011719 62.355469 69.949219 62.355469 C 72.886719 62.355469 72.8125 59.164062 72.8125 59.164062 C 72.8125 59.164062 72.960938 57.847656 72.8125 55.644531 C 74.734375 54.074219 75.496094 51.265625 75.597656 50.933594 C 75.699219 50.605469 76.203125 50.480469 76.203125 50.480469 L 77.394531 50.480469 C 77.394531 50.480469 76.890625 51.820312 76.863281 53.542969 C 76.835938 55.265625 77.597656 56.65625 78.738281 56.65625 C 79.875 56.65625 80.511719 55.46875 80.511719 55.46875 C 80.511719 55.46875 80.8125 56.558594 82.457031 56.558594 C 84.105469 56.558594 84.726562 54.816406 84.726562 54.816406 C 84.726562 54.816406 85.183594 56.582031 86.324219 56.582031 C 87.464844 56.582031 87.980469 55.304688 87.980469 55.304688 C 87.980469 55.304688 88.019531 56.402344 87.980469 56.402344 C 87.9375 56.402344 89.785156 56.402344 89.785156 56.402344 C 89.785156 56.402344 89.785156 56.050781 89.785156 54.398438 C 89.785156 52.742188 90.460938 51.410156 90.800781 50.789062 C 91.140625 50.164062 91.289062 50.734375 91.289062 50.734375 C 91.289062 50.734375 91.289062 50.789062 91.332031 53.121094 C 91.371094 55.453125 91.980469 55.96875 92.523438 55.96875 C 93.066406 55.96875 93.011719 55.507812 93.164062 54.652344 C 93.351562 52.605469 94.546875 50.5 94.546875 50.5 C 94.546875 50.5 94.546875 52.972656 94.546875 53.5 C 94.546875 54.03125 94.492188 56.605469 96.347656 56.605469 C 98.207031 56.605469 98.101562 53.867188 98.101562 53.867188 Z M 63.746094 52.734375 C 63.59375 54.605469 62.863281 55.519531 62.277344 55.519531 C 61.6875 55.519531 61.070312 54.195312 61.160156 52.605469 C 61.253906 51.019531 61.878906 49.796875 62.464844 49.796875 C 63.3125 49.796875 63.90625 50.730469 63.746094 52.734375 Z M 71.191406 52.734375 C 71.039062 54.605469 70.308594 55.519531 69.71875 55.519531 C 69.132812 55.519531 68.515625 54.195312 68.609375 52.605469 C 68.699219 51.019531 69.324219 49.796875 69.910156 49.796875 C 70.757812 49.796875 71.351562 50.730469 71.191406 52.734375 Z M 70.160156 61.339844 C 68.328125 61.546875 69.09375 59.953125 69.601562 59.261719 C 70.195312 58.457031 71.53125 57.300781 71.53125 57.300781 C 71.53125 57.300781 71.761719 61.160156 70.160156 61.339844 Z M 84.28125 52.734375 C 84.132812 54.605469 83.402344 55.519531 82.8125 55.519531 C 82.226562 55.519531 81.609375 54.195312 81.699219 52.605469 C 81.789062 51.019531 82.414062 49.796875 83 49.796875 C 83.851562 49.796875 84.445312 50.730469 84.28125 52.734375 Z M 84.28125 52.734375 "/>
<path style=" stroke:none;fill-rule:nonzero;fill:rgb(14.509804%,14.509804%,14.509804%);fill-opacity:1;" d="M 23.050781 44.871094 C 22.402344 44.871094 21.875 45.394531 21.875 46.042969 C 21.875 46.691406 22.402344 47.214844 23.050781 47.214844 C 23.695312 47.214844 24.222656 46.691406 24.222656 46.042969 C 24.222656 45.394531 23.695312 44.871094 23.050781 44.871094 Z M 22.101562 41.707031 L 13.917969 41.707031 C 10.90625 41.707031 8.464844 44.164062 8.464844 47.195312 L 8.464844 55.085938 C 8.464844 58.117188 10.90625 60.574219 13.917969 60.574219 L 22.101562 60.574219 C 25.113281 60.574219 27.554688 58.117188 27.554688 55.085938 L 27.554688 47.195312 C 27.554688 44.164062 25.113281 41.707031 22.101562 41.707031 Z M 25.769531 54.375 C 25.769531 57.316406 24.441406 58.902344 21.328125 58.902344 L 14.660156 58.902344 C 11.574219 58.902344 10.214844 57.378906 10.214844 54.375 L 10.214844 47.867188 C 10.214844 44.59375 11.554688 43.335938 14.660156 43.335938 L 21.328125 43.335938 C 24.238281 43.335938 25.769531 44.71875 25.769531 47.867188 Z M 17.957031 46.246094 C 15.261719 46.246094 13.082031 48.429688 13.082031 51.121094 C 13.082031 53.8125 15.261719 55.996094 17.957031 55.996094 C 20.648438 55.996094 22.832031 53.8125 22.832031 51.121094 C 22.832031 48.429688 20.648438 46.246094 17.957031 46.246094 Z M 17.957031 54.292969 C 16.203125 54.292969 14.785156 52.875 14.785156 51.121094 C 14.785156 49.371094 16.203125 47.949219 17.957031 47.949219 C 19.707031 47.949219 21.128906 49.371094 21.128906 51.121094 C 21.128906 52.875 19.707031 54.292969 17.957031 54.292969 Z M 17.957031 54.292969 "/>
</g>
</svg>
