<?xml version="1.0" encoding="UTF-8"?>
<svg xmlns="http://www.w3.org/2000/svg" xmlns:xlink="http://www.w3.org/1999/xlink" width="24pt" height="24pt" viewBox="0 0 24 24" version="1.1">
<g id="surface1">
<path style=" stroke:none;fill-rule:nonzero;fill:rgb(0%,0%,0%);fill-opacity:1;" d="M 4.800781 14.398438 C 3.472656 14.398438 2.398438 13.324219 2.398438 12 C 2.398438 10.675781 3.472656 9.601562 4.800781 9.601562 C 6.125 9.601562 7.199219 10.675781 7.199219 12 C 7.199219 13.324219 6.125 14.398438 4.800781 14.398438 Z M 12 14.398438 C 10.675781 14.398438 9.601562 13.324219 9.601562 12 C 9.601562 10.675781 10.675781 9.601562 12 9.601562 C 13.324219 9.601562 14.398438 10.675781 14.398438 12 C 14.398438 13.324219 13.324219 14.398438 12 14.398438 Z M 19.199219 14.398438 C 17.875 14.398438 16.800781 13.324219 16.800781 12 C 16.800781 10.675781 17.875 9.601562 19.199219 9.601562 C 20.527344 9.601562 21.601562 10.675781 21.601562 12 C 21.601562 13.324219 20.527344 14.398438 19.199219 14.398438 Z M 19.199219 14.398438 "/>
</g>
</svg>
